<?xml version="1.0" standalone="no"?><!DOCTYPE svg PUBLIC "-//W3C//DTD SVG 1.1//EN" "http://www.w3.org/Graphics/SVG/1.1/DTD/svg11.dtd"><svg t="1513603002340" class="icon" style="" viewBox="0 0 1024 1024" version="1.1" xmlns="http://www.w3.org/2000/svg" p-id="784" xmlns:xlink="http://www.w3.org/1999/xlink" width="128" height="128"><defs><style type="text/css"></style></defs><path d="M453.56032 551.40352c-2.88768 1.55648-6.144 2.49856-9.69728 2.62144-13.16864 0.58368-24.27904-10.72128-24.7296-25.15968-0.48128-14.37696 9.91232-26.56256 23.07072-27.02336 13.27104-0.4608 24.35072 10.82368 24.832 25.22112 0 1.55648-0.1024 3.0208-0.34816 4.48512 3.072-7.70048 4.72064-16.0768 4.46464-24.92416-0.99328-31.7952-25.3952-56.59648-54.50752-55.5008-29.05088 1.09568-51.8144 27.71968-50.82112 59.40224 0.99328 31.744 25.3952 56.53504 54.40512 55.48032 12.9024-0.4608 24.5248-5.9904 33.3312-14.60224zM589.76256 543.41632a22.0672 22.0672 0 0 1-9.71776-2.68288c8.83712 8.62208 20.45952 14.14144 33.35168 14.62272 28.99968 1.09568 53.41184-23.69536 54.40512-55.43936 1.024-31.744-21.76-58.29632-50.82112-59.40224-29.11232-1.09568-53.52448 23.69536-54.4768 55.43936a61.9008 61.9008 0 0 0 4.4032 24.97536 31.17056 31.17056 0 0 1-0.29696-4.53632c0.48128-14.31552 11.56096-25.62048 24.7808-25.15968 13.19936 0.4608 23.58272 12.63616 23.10144 27.02336-0.41984 14.4384-11.53024 25.68192-24.7296 25.15968z" fill="#E60012" p-id="785"></path><path d="M193.31072 606.23872c4.8128 11.01824 5.61152 28.01664 0.45056 42.57792-9.9328 27.65824-34.99008 43.07968-65.00352 31.78496-26.33728-10.00448-38.64576-44.71808-28.57984-73.94304 9.71776-28.416 40.56064-42.74176 67.21536-30.464l110.04928-57.3952a3456.7168 3456.7168 0 0 0-1.9456-29.0304l-108.09344 59.58656c-48.36352-12.40064-79.53408 20.0192-87.06048 49.37728-13.32224 51.70176 10.51648 91.99616 47.74912 105.27744 25.58976 8.96 74.0864 1.40288 88.20736-54.34368 0.77824-3.08224 4.48512-17.28512 1.62816-30.9248l62.94528-33.90464a2872.5248 2872.5248 0 0 0-1.09568-24.61696l-86.46656 46.01856zM943.9744 587.68384c-7.34208-29.41952-38.144-62.38208-86.69184-50.71872l-113.48992-64.54272 0.1536 10.32192 0.64512 20.49024 112.4864 60.69248c26.75712-11.8784 57.43616 2.89792 66.89792 31.4368 9.74848 29.3376-2.93888 63.81568-29.37856 73.48224-30.11584 10.84416-55.04-4.88448-64.60416-32.7168-5.07904-14.56128-4.10624-31.55968 0.96256-42.51648l-84.98176-46.62272 0.84992 25.81504 59.27936 33.05472c-2.99008 13.49632 0.5632 27.78112 1.3312 30.86336 13.53728 55.90016 61.91104 64.12288 87.6032 55.43936 37.376-12.66688 61.67552-52.66432 48.93696-104.47872z" fill="#D71618" p-id="786"></path><path d="M744.58112 503.23456l-0.64512-20.49024-0.1536-10.32192c-2.32448-165.05856-0.37888-380.74368-0.37888-382.85312l0.50176-43.43808-86.09792 158.38208L679.45472 17.3056l-25.64096 45.7728c-21.53472 38.49216-84.71552 141.49632-117.77024 155.70944a158.23872 158.23872 0 0 1-66.6624 12.81024C354.304 229.08928 249.55904 110.53056 248.5248 109.37344l-24.27904-27.83232s4.80256 28.99968 6.43072 38.66624c23.32672 142.3872 37.26336 264.96 44.82048 369.57184a3081.55392 3081.55392 0 0 1 4.28032 70.47168c0.4096 8.33536 0.77824 16.5376 1.09568 24.61696 12.20608 301.9776-32.44032 421.8368-32.44032 421.8368h254.23872l33.62816-91.78112 33.9456 91.78112h231.51616s-53.1968-233.61536-52.81792-381.06112c-0.47104-6.144-1.28-27.66848-2.12992-52.84864l-0.84992-25.81504-1.3824-43.74528z m33.13664 482.08896l-185.16992 2.62144-53.84192-129.95584-52.5824 128.9216-205.98784-0.23552c38.4-166.656 24.89344-648.79616-27.26912-831.87712C292.12672 191.1808 374.8864 256 465.90976 256.58368a178.688 178.688 0 0 0 74.35264-15.55456c30.76096-13.74208 74.16832-79.07328 101.376-124.32384l-20.08064 194.01728 95.744-181.5552c0.31744 71.68 10.19904 475.72992 11.8272 494.03904 1.21856 128.55296 35.67616 309.3504 48.5888 362.11712z" fill="#E60012" p-id="787"></path><path d="M471.69536 409.20064L354.5088 365.45536l-3.65568 13.58848 117.13536 43.71456zM676.48512 370.4832l-3.34848-13.63968-118.13888 39.72096 3.30752 13.55776z" fill="" p-id="788"></path><path d="M364.8 739.86048c14.03904 3.55328 17.29536-18.93376 14.92992-27.52512-0.01024 0-30.53568 12.15488-14.92992 27.52512zM662.0672 732.86656s-6.23616 38.18496 15.68768 30.43328c10.77248-12.544-6.93248-28.16-15.68768-30.43328zM349.55264 808.96c19.64032 4.88448 24.32-26.63424 20.93056-38.76864 0.01024 0-43.008 17.01888-20.93056 38.76864z" fill="#E60012" p-id="789"></path><path d="M672.90112 693.82144c4.05504-15.59552 1.09568-31.49824 1.36192-33.36192-3.24608-25.15968-12.62592-37.62176-21.64736-44.02176-10.5472-7.40352-18.6368-7.80288-19.8656-7.70048-11.59168 1.23904-19.34336 13.9776-27.8016 26.9824-11.54048 17.75616-35.1232 11.52-33.8432 12.04224-18.88256-5.12-33.86368-17.4592-43.66336-28.30336-3.1232-8.37632-14.10048-19.15904-12.82048-18.52416-64.27648-38.90176-110.34624 41.12384-110.34624 41.12384-11.74528 26.3168-11.45856 48.80384-6.30784 66.95936 36.05504-18.57536 92.83584-30.55616 157.0304-30.55616 44.22656 0 84.97152 5.75488 117.90336 15.36z" fill="#C34E53" p-id="790"></path><path d="M554.99776 678.46144c-64.2048 0-120.97536 11.9808-157.0304 30.55616 8.6016 29.94176 30.8224 47.9232 34.90816 51.87584 81.08032 34.6624 128.4608-40.98048 132.36224-42.4448 14.2848-9.96352 31.16032 0.69632 35.72736 2.83648 49.96096 11.93984 66.7648-7.49568 71.94624-27.48416-32.94208-9.58464-73.68704-15.33952-117.9136-15.33952z" fill="#DF6A71" p-id="791"></path></svg>