<?xml version="1.0" standalone="no"?><!DOCTYPE svg PUBLIC "-//W3C//DTD SVG 1.1//EN" "http://www.w3.org/Graphics/SVG/1.1/DTD/svg11.dtd"><svg t="1502523899941" class="icon" style="" viewBox="0 0 1228 1024" version="1.1" xmlns="http://www.w3.org/2000/svg" p-id="3411" xmlns:xlink="http://www.w3.org/1999/xlink" width="239.84375" height="200"><defs><style type="text/css"></style></defs><path d="M1101.824254 664.603427c-44.236328-63.78447-103.908763-111.797425-173.35309-139.40266 30.692165-21.605612 56.414169-50.238855 74.929945-83.846616 21.60416-38.752162 32.922422-83.161277 32.922422-128.085849 0-140.430668-108.710494-254.799567-242.451844-254.799567-19.032685 0-34.465887 15.43175-34.465887 34.465887 0 19.032685 15.43175 34.465887 34.465887 34.465888 95.677431 0 173.524425 83.334064 173.524425 185.870696S889.549119 499.141902 793.871687 499.141902c-19.032685 0-34.465887 15.43175-34.465887 34.465888v0.171335c0 19.031233 15.43175 34.464435 34.465887 34.464435 172.152294 0 312.068958 149.347339 312.068959 332.816444 0 19.032685 15.43175 34.465887 34.464435 34.465887s34.465887-15.43175 34.465887-34.465887c0.171335-85.561417-25.203643-167.352015-73.04381-236.452221l-0.002904-0.004356m-355.964069-58.468735c-36.179236-25.550669-75.445402-45.781246-117.110256-60.184987 87.790221-53.325786 141.804251-148.31933 141.80425-251.53985C770.554179 132.030906 638.523274 0 476.144324 0S181.735921 132.030906 181.735921 294.409855c0 55.211921 15.43175 109.224498 44.751784 155.862419 24.692543 39.436049 58.468735 72.529806 98.248906 96.534105a461.998545 461.998545 0 0 0-118.997843 60.871778c-39.951506 28.292026-75.102733 62.586578-104.595554 101.678506C40.103005 790.630354 7.865922 887.679916 7.865922 989.534113c0 19.031233 15.43175 34.464435 34.465887 34.464435 19.032685 0 34.465887-15.43175 34.465888-34.464435 0-106.30745 41.494971-206.27406 116.596252-281.89225 75.102733-75.274067 174.381099-116.940373 279.661992-116.940373 3.4296 0.34267 7.030536 0 10.460136-0.685339l2.744262-0.686792c102.536632 2.05747 198.899403 43.379654 272.114548 116.938922 75.274067 75.445402 116.597704 175.581895 116.597704 281.890797 0 19.032685 15.43175 34.465887 34.465887 34.465887 19.031233 0 34.464435-15.43175 34.464436-34.465887 0-101.851293-32.232727-198.72952-93.448627-280.177449-29.321487-39.266167-64.644048-73.559267-104.594102-101.851293v0.004356M476.314207 68.928871c124.313579 0 225.480984 101.164502 225.480984 225.479532 0 124.313579-101.165954 225.47808-225.480984 225.478081-124.313579 0-225.479532-101.16305-225.479533-225.478081-0.001452-124.313579 101.164502-225.479532 225.479533-225.479532m0 0z" fill="" p-id="3412"></path></svg>