<?xml version="1.0" standalone="no"?><!DOCTYPE svg PUBLIC "-//W3C//DTD SVG 1.1//EN" "http://www.w3.org/Graphics/SVG/1.1/DTD/svg11.dtd"><svg t="1502523875770" class="icon" style="" viewBox="0 0 1024 1024" version="1.1" xmlns="http://www.w3.org/2000/svg" p-id="3302" xmlns:xlink="http://www.w3.org/1999/xlink" width="200" height="200"><defs><style type="text/css"></style></defs><path d="M656.968719 489.078964c67.653843-46.638203 112.023376-123.208113 112.023376-209.789027 0-141.874241-118.708636-257.253038-264.550235-257.253038S239.891625 137.415696 239.891625 279.289937c0 89.078805 46.899146 167.721933 117.912504 213.904765-131.666762 57.407478-223.731574 185.67891-223.731574 334.657966 0 128.492466 203.588815 174.110433 377.923352 174.110433 174.33863 0 377.930515-45.617967 377.930515-174.110433 0-152.494113-96.335069-283.48447-232.957703-338.773704zM315.477115 279.289937c0-100.150978 84.771709-181.671643 188.965769-181.671642 104.189967 0 188.965769 81.520665 188.965769 181.671642 0 100.111069-84.774779 181.631734-188.965769 181.631734-104.195084 0-188.965769-81.520665-188.965769-181.631734z m196.518792 647.124514c-180.835601 0-302.338886-50.982138-302.338886-98.525967 0-160.695912 135.63719-291.382347 302.338886-291.382347 166.707836 0 302.346049 130.686435 302.346049 291.382347 0 47.543829-121.503285 98.525967-302.346049 98.525967z" fill="" p-id="3303"></path></svg>