<?xml version="1.0" standalone="no"?><!DOCTYPE svg PUBLIC "-//W3C//DTD SVG 1.1//EN" "http://www.w3.org/Graphics/SVG/1.1/DTD/svg11.dtd"><svg t="1501155936040" class="icon" style="" viewBox="0 0 1024 1024" version="1.1" xmlns="http://www.w3.org/2000/svg" p-id="1553" xmlns:xlink="http://www.w3.org/1999/xlink" width="200" height="200"><defs><style type="text/css"></style></defs><path d="M927.21487 216.36436l-98.64652 98.99956-96.206963-17.460639-17.286677-96.206963 98.648567-98.99956c-22.172954-22.173978-53.777703-32.301619-77.171459-31.07877-23.573858 1.223872-73.858001 14.493057-112.795747 55.872407-37.715921 39.810625-77.353608 114.017572-42.257345 196.429372 4.189407 9.953679 8.905816 23.048903-5.062286 37.018028-14.140017 13.969125-422.650198 401.804469-422.650198 401.804469-33.872391 29.155982-31.424647 83.11174-0.170892 114.536387 31.774617 31.254779 85.379382 33.177567 114.536387-0.519839 0 0 384.5884-407.042763 401.175137-423.278507 14.842003-14.496127 28.113235-9.606779 37.017004-5.066379 62.155494 32.126634 150.681537 4.190431 196.604357-41.730343 45.916681-45.919751 54.299588-90.269753 55.696398-112.969709C960.042467 271.188904 952.183491 241.330935 927.21487 216.36436L927.21487 216.36436zM232.882536 837.297134c-10.996426 10.822465-28.807035 10.822465-39.633593 0-10.823488-11.002566-10.823488-28.812152 0-39.634616 11.001543-10.828605 28.811128-10.828605 39.633593 0C243.71114 808.660991 243.71114 826.470576 232.882536 837.297134L232.882536 837.297134zM232.882536 837.297134" p-id="1554"></path><path d="M709.603102 532.654371 709.603102 532.654371l0.00614 0M463.696974 420.083751l-61.37369 59.473414L274.272119 352.179334l-30.63568 29.79657L71.656873 215.21212l122.806731-119.135116 171.915098 166.764808-30.740057 29.80271 128.058328 127.446392L463.696974 420.083751zM860.821873 839.349882l-49.10632 47.695183c-33.953232 32.887972-88.857593 32.887972-122.800592 0 0 0-196.766039-199.406164-193.931487-192.387321 72.410025-122.163073 177.705976-149.907919 177.705976-149.907919L860.821873 720.273094C894.749522 753.098645 894.749522 806.45577 860.821873 839.349882L860.821873 839.349882 860.821873 839.349882zM568.804637 671.098213c-8.496494 8.238622-8.496494 21.693025 0 29.9296l157.886621 153.12007c8.494448 8.308206 22.330543 8.308206 30.831131 0 8.494448-8.304113 8.494448-21.690978 0-29.869225L599.635768 671.09412c-8.502634-8.297973-22.304961-8.297973-30.831131 0l0 0L568.804637 671.098213zM826.937203 756.837798 669.154959 603.715681c-8.559939-8.310253-22.403198-8.310253-30.896622 0-8.500588 8.304113-8.500588 21.684838 0 29.866155l157.886621 153.187608c8.494448 8.232482 22.298821 8.232482 30.793269 0 8.528217-8.308206 8.528217-21.695071 0-29.925507l0 0L826.938226 756.837798zM826.937203 756.837798" p-id="1555"></path></svg>