<?xml version="1.0" standalone="no"?><!DOCTYPE svg PUBLIC "-//W3C//DTD SVG 1.1//EN" "http://www.w3.org/Graphics/SVG/1.1/DTD/svg11.dtd"><svg t="1501244677434" class="icon" style="" viewBox="0 0 1024 1024" version="1.1" xmlns="http://www.w3.org/2000/svg" p-id="4567" xmlns:xlink="http://www.w3.org/1999/xlink" width="200" height="200"><defs><style type="text/css"></style></defs><path d="M988 872.9375c21.875 24.9375 33.75 46.8125 35.6875 65.5s-5.3125 37-21.625 54.9375c-18.6875 21-39.375 31-62 29.8125C917.5 1022 895.625 1012.875 874.625 995.75L678.125 806.3125c-35 22.5625-72.625 40.125-112.7875 52.5625-40.1625 12.5-82.4375 18.75-126.875 18.75-60.8125 0-117.6875-11.5-170.725-34.5-53-23-99.375-54.375-139.125-94.125S57.5 662.875 34.5 609.875 0 499.975 0 439.1625c0-60.7875 11.5-117.6875 34.5-170.725 23-53 54.375-99.375 94.125-139.125 39.75-39.7875 86.125-71.1625 139.125-94.125 53.0375-23 109.9125-34.5 170.725-34.5s117.725 11.5 170.725 34.5c53 22.975 99.375 54.35 139.125 94.125 39.75 39.75 71.125 86.125 94.125 139.125 23 53.0375 34.5 109.9375 34.5 170.725 0 46-6.625 89.6625-19.875 130.975-13.25 41.25-31.9375 79.5-56.125 114.5625l38.5625 38.5625c18.75 18.75 38.4375 38.25 59.0625 58.5 20.6875 20.25 39.5625 39.375 56.6875 57.25C972.4375 857 983.375 868.25 988 872.9375zM443.1625 731.5c40.5375 0 78.725-7.625 114.6-22.875 35.875-15.125 67-36 93.5-62.5 26.5-26.5 47.375-57.6875 62.5625-93.5625 15.1875-35.85 22.8125-74.0375 22.8125-114.5625s-7.625-78.75-22.8125-114.6c-15.1875-35.875-36.0625-67.0375-62.5625-93.5625-26.5-26.5-57.625-47.35-93.5-62.5375-35.875-15.225-74.0625-22.8125-114.6-22.8125s-78.75 7.6-114.6 22.8125c-35.85 15.1875-67.0375 36.0375-93.5375 62.5375-26.5 26.5375-47.375 57.6875-62.5625 93.5625-15.1875 35.85-22.8125 74.0625-22.8125 114.6s7.625 78.725 22.8125 114.5625c15.1875 35.875 36.0625 67.0625 62.5625 93.5625 26.5 26.5 57.6875 47.375 93.5375 62.5C364.4125 723.875 402.625 731.5 443.1625 731.5L443.1625 731.5z" p-id="4568"></path></svg>