<?xml version="1.0" standalone="no"?><!DOCTYPE svg PUBLIC "-//W3C//DTD SVG 1.1//EN" "http://www.w3.org/Graphics/SVG/1.1/DTD/svg11.dtd"><svg t="1502523760953" class="icon" style="" viewBox="0 0 1024 1024" version="1.1" xmlns="http://www.w3.org/2000/svg" p-id="2539" xmlns:xlink="http://www.w3.org/1999/xlink" width="200" height="200"><defs><style type="text/css"></style></defs><path d="M119.176286 556.035936c0 98.493222 87.86107 178.62833 195.84034 178.62833l58.778708 0c0-0.010233 0-0.010233 0-0.010233l58.277288 0c-3.131317 8.7902-5.157463 18.122753-5.157463 27.987425 0 55.238069 45.025473 139.875724 83.931574 139.875724 38.906102 0 83.931574-84.637656 83.931574-139.875724 0-9.864672-2.026146-19.197224-5.157463-27.987425l58.277288 0c0 0 0 0 0 0.010233l58.788941 0c107.969037 0 195.830107-80.135108 195.830107-178.62833l0-258.231319c0-98.493222-87.86107-178.62833-195.830107-178.62833l-391.670447 0c-107.97927 0-195.84034 80.135108-195.84034 178.62833L119.176286 556.035936zM958.471564 297.804616l0 258.231319c0 129.33567-112.942305 234.57248-251.78449 234.57248l-58.512648 0c-11.675924 69.615521-62.646805 167.771051-137.235594 167.852916l-0.184195 0c-74.588789-0.081864-125.559671-98.237395-137.225361-167.852916l-58.512648 0c-138.852418 0-251.794723-105.236809-251.794723-234.57248l0-258.231319c0-129.33567 112.942305-234.582713 251.794723-234.582713l391.670447 0C845.529259 63.221904 958.471564 168.468946 958.471564 297.804616z" p-id="2540"></path><path d="M538.823925 378.717438c8.401344 4.881171 15.33936 11.82942 20.230764 20.22053l259.530918 0 0 55.954383-259.541151 0c-9.69071 16.649192-27.53717 27.966958-48.187489 27.966958-30.903847 0-55.954383-25.050536-55.954383-55.94415 0-20.660552 11.317767-38.496779 27.966958-48.187489l0-175.61981 55.954383 0L538.823925 378.717438z" p-id="2541"></path></svg>