<?xml version="1.0" standalone="no"?><!DOCTYPE svg PUBLIC "-//W3C//DTD SVG 1.1//EN" "http://www.w3.org/Graphics/SVG/1.1/DTD/svg11.dtd"><svg t="1501155699454" class="icon" style="" viewBox="0 0 1026 1024" version="1.1" xmlns="http://www.w3.org/2000/svg" p-id="1444" xmlns:xlink="http://www.w3.org/1999/xlink" width="200.390625" height="200"><defs><style type="text/css"></style></defs><path d="M895.989469 639.989469c70.586919 0 127.989469-57.434142 127.98947-128 0-70.586919-57.40255-127.989469-127.98947-127.989469h-22.18807a386.843274 386.843274 0 0 0-15.406335-37.383793l15.627478-15.648539a127.136487 127.136487 0 0 0 37.373262-90.500371c0-34.277252-13.279144-66.406253-37.373262-90.50037-24.094118-24.12571-56.25471-37.373262-90.50037-37.373262-34.256191 0-66.416783 13.247552-90.510901 37.373262l-15.616948 15.627479a382.609955 382.609955 0 0 0-37.415384-15.406335v-22.188071C639.978939 57.40255 582.586919 0 511.989469 0c-70.586919 0-127.989469 57.40255-127.989469 128v22.188071a384.768737 384.768737 0 0 0-37.415385 15.406335l-15.627478-15.627479c-24.083587-24.12571-56.244179-37.373262-90.48984-37.373262-34.256191 0-66.406253 13.247552-90.50037 37.373262a127.083834 127.083834 0 0 0-37.373262 90.50037c0 34.24566 13.279144 66.406253 37.373262 90.500371l15.616948 15.616947a387.359276 387.359276 0 0 0-15.395804 37.415385h-22.188071C57.40255 384 0 441.40255 0 511.989469c0 70.565858 57.40255 128 128 128h22.188071a386.064007 386.064007 0 0 0 15.395804 37.404854l-15.616948 15.627479c-24.094118 24.094118-37.373262 56.223118-37.373262 90.50037s13.279144 66.416783 37.373262 90.50037a127.168079 127.168079 0 0 0 90.50037 37.383793c34.24566 0 66.406253-13.300206 90.48984-37.383793l15.627478-15.616948a395.604772 395.604772 0 0 0 37.415385 15.406335v22.17754c0 70.555327 57.40255 128 127.989469 128 70.59745 0 127.989469-57.444673 127.98947-128v-22.17754a386.516824 386.516824 0 0 0 37.415384-15.437927l15.616948 15.64854a127.18914 127.18914 0 0 0 90.510901 37.383793c34.24566 0 66.406253-13.300206 90.50037-37.383793s37.373262-56.223118 37.373262-90.50037-13.279144-66.406253-37.373262-90.50037l-15.627478-15.659071a387.759441 387.759441 0 0 0 15.406335-37.373262h22.18807zM828.761826 738.271987a63.362896 63.362896 0 0 1 18.628713 45.250185 63.468202 63.468202 0 0 1-18.628713 45.250185c-24.051995 24.030934-66.437845 24.030934-90.50037 0l-49.283422-49.315014-21.124476 11.846976a320.184286 320.184286 0 0 1-68.596627 28.306376l-23.272727 6.602715v69.776059a64.08951 64.08951 0 0 1-64.005265 63.994735 64.07898 64.07898 0 0 1-63.994735-63.994735v-69.776059l-23.283258-6.602715a319.257589 319.257589 0 0 1-68.596627-28.306376l-21.124475-11.815384-49.283423 49.283422c-24.062526 24.030934-66.427314 24.030934-90.489839 0a63.468202 63.468202 0 0 1-18.628713-45.250185c0-17.186014 6.592184-33.25578 18.628713-45.250185l49.272891-49.283423-11.836445-21.124475a319.963143 319.963143 0 0 1-28.285315-68.628219l-6.592184-23.251666h-69.77606c-35.288194 0-64.005265-28.727602-64.005265-64.005265s28.717071-63.994735 64.005265-63.994735h69.77606l6.592184-23.283258a319.478733 319.478733 0 0 1 28.285315-68.596627l11.836445-21.124475-49.272891-49.272892a63.478733 63.478733 0 0 1-18.628713-45.250185c0-17.186014 6.592184-33.25578 18.628713-45.250185 24.062526-24.030934 66.437845-24.030934 90.489839 0l49.283423 49.272891 21.124475-11.836445a319.194406 319.194406 0 0 1 68.596627-28.285315l23.283258-6.592184v-69.77606a64.068449 64.068449 0 0 1 63.994735-64.005265 64.07898 64.07898 0 0 1 64.005265 64.005265v69.77606l23.272727 6.592184c24.220485 6.876512 47.272069 16.375154 68.596627 28.316906l21.124476 11.804854 49.283422-49.272891c24.062526-24.030934 66.448375-24.030934 90.50037 0a63.362896 63.362896 0 0 1 18.628713 45.250185 63.478733 63.478733 0 0 1-18.628713 45.250185l-49.25183 49.272892 11.773262 21.124475a317.920197 317.920197 0 0 1 28.316907 68.596627l6.592184 23.283258h69.78659c35.277664 0 63.994735 28.717071 63.994734 63.994735s-28.727602 64.005265-63.994734 64.005265h-69.78659l-6.592184 23.251666a318.931139 318.931139 0 0 1-28.316907 68.628219l-11.773262 21.124475 49.25183 49.283423z m-316.772357-418.277252c-105.875113 0-191.994735 86.119622-191.994734 191.994734s86.119622 192.005265 191.994734 192.005266c105.875113 0 191.984204-86.130152 191.984204-192.005266s-86.109091-191.994735-191.984204-191.994734m0 319.994734c-70.586919 0-128-57.434142-128-128 0-70.586919 57.413081-127.989469 128-127.989469 70.59745 0 127.989469 57.40255 127.98947 127.989469 0 70.565858-57.39202 128-127.98947 128" p-id="1445"></path></svg>